<svg xmlns="http://www.w3.org/2000/svg" version="1.1" xmlns:xlink="http://www.w3.org/1999/xlink" xmlns:svgjs="http://svgjs.dev/svgjs" width="2000" height="1247" viewBox="0 0 2000 1247"><g transform="matrix(1,0,0,1,-1.2121212121212466,0.504858299595071)"><svg viewBox="0 0 396 247" data-background-color="#003366" preserveAspectRatio="xMidYMid meet" height="1247" width="2000" xmlns="http://www.w3.org/2000/svg" xmlns:xlink="http://www.w3.org/1999/xlink"><g id="tight-bounds" transform="matrix(1,0,0,1,0.2400000000000091,-0.09999999999999432)"><svg viewBox="0 0 395.52 247.2" height="247.2" width="395.52"><g><svg></svg></g><g><svg viewBox="0 0 395.52 247.2" height="247.2" width="395.52"><g transform="matrix(1,0,0,1,131.72887966804979,47.21520000000001)"><svg viewBox="0 0 132.0622406639004 152.76959999999997" height="152.76959999999997" width="132.0622406639004"><g><svg viewBox="0 0 132.0622406639004 152.76959999999997" height="152.76959999999997" width="132.0622406639004"><g><svg viewBox="0 0 132.0622406639004 152.76959999999997" height="152.76959999999997" width="132.0622406639004"><g><svg viewBox="0 0 132.0622406639004 152.76959999999997" height="152.76959999999997" width="132.0622406639004"><g id="textblocktransform"><svg viewBox="0 0 132.0622406639004 152.76959999999997" height="152.76959999999997" width="132.0622406639004" id="textblock"><g><svg viewBox="0 0 132.0622406639004 152.76959999999997" height="152.76959999999997" width="132.0622406639004"><g transform="matrix(1,0,0,1,0,0)"><svg width="132.0622406639004" viewBox="2.75 -35.55 31.25 36.14999999999999" height="152.76959999999997" data-palette-color="#ffffff"><path d="M34-8.5L34-8.5Q33.8-6.9 33.58-4.78 33.35-2.65 33.25-0.95L33.25-0.95Q31-0.5 28.03 0.05 25.05 0.6 21.8 0.6L21.8 0.6Q15.85 0.6 11.58-1.63 7.3-3.85 5.03-7.85 2.75-11.85 2.75-17.2L2.75-17.2Q2.75-22.6 5.05-26.73 7.35-30.85 11.63-33.2 15.9-35.55 21.9-35.55L21.9-35.55Q23.5-35.55 25.25-35.38 27-35.2 29.2-34.8L29.2-34.8Q30.05-34.65 30.85-34.5 31.65-34.35 32.55-34.35L32.55-34.35Q32.7-34.35 32.88-34.35 33.05-34.35 33.35-34.4L33.35-34.4Q33.4-32.8 33.52-30.5 33.65-28.2 33.75-26.35L33.75-26.35Q33.45-26.3 33.25-26.28 33.05-26.25 32.8-26.25L32.8-26.25Q32.25-30.1 29.45-32.1 26.65-34.1 21.75-34.1L21.75-34.1Q17.55-34.1 14.75-32.73 11.95-31.35 10.3-29.03 8.65-26.7 7.95-23.73 7.25-20.75 7.25-17.6L7.25-17.6Q7.25-14.2 8.03-11.18 8.8-8.15 10.6-5.85 12.4-3.55 15.35-2.23 18.3-0.9 22.65-0.9L22.65-0.9Q27.6-0.9 29.9-2.8 32.2-4.7 32.95-8.5L32.95-8.5Q33.05-8.5 33.18-8.53 33.3-8.55 33.45-8.55L33.45-8.55Q33.55-8.55 33.7-8.53 33.85-8.5 34-8.5Z" opacity="1" transform="matrix(1,0,0,1,0,0)" fill="#ffffff" class="wordmark-text-0" data-fill-palette-color="primary" id="text-0"></path></svg></g></svg></g></svg></g></svg></g></svg></g></svg></g></svg></g><g><path d="M0 123.6c0-68.262 55.338-123.6 123.6-123.6 30.402 0 58.24 10.976 79.768 29.183l-11.147 0c-19.26-14.022-42.974-22.294-68.621-22.295-64.458 0-116.712 52.254-116.712 116.712 0 64.458 52.254 116.712 116.712 116.712 25.647 0 49.361-8.272 68.621-22.295h11.147c-21.528 18.206-49.366 29.183-79.768 29.183-68.262 0-123.6-55.338-123.6-123.6z" fill="#ffffff" stroke="transparent" data-fill-palette-color="tertiary"></path></g></svg></g><defs></defs></svg><rect width="395.52" height="247.2" fill="none" stroke="none" visibility="hidden"></rect></g></svg></g></svg>