<svg xmlns="http://www.w3.org/2000/svg" version="1.1" xmlns:xlink="http://www.w3.org/1999/xlink" xmlns:svgjs="http://svgjs.dev/svgjs" width="2000" height="803" viewBox="0 0 2000 803"><g transform="matrix(1,0,0,1,-1.2121212121212466,-0.9172684972132856)"><svg viewBox="0 0 396 159" data-background-color="#ffffff" preserveAspectRatio="xMidYMid meet" height="803" width="2000" xmlns="http://www.w3.org/2000/svg" xmlns:xlink="http://www.w3.org/1999/xlink"><g id="tight-bounds" transform="matrix(1,0,0,1,0.2400000000000091,0.18162601626016794)"><svg viewBox="0 0 395.52 158.63674796747966" height="158.63674796747966" width="395.52"><g><svg viewBox="0 0 395.52 158.63674796747966" height="158.63674796747966" width="395.52"><g><svg viewBox="0 0 395.52 158.63674796747966" height="158.63674796747966" width="395.52"><g id="textblocktransform"><svg viewBox="0 0 395.52 158.63674796747966" height="158.63674796747966" width="395.52" id="textblock"><g><svg viewBox="0 0 395.52 158.63674796747966" height="158.63674796747966" width="395.52"><g transform="matrix(1,0,0,1,0,0)"><svg width="395.52" viewBox="1.46 -42.97 108.10000000000001 43.36" height="158.63674796747966" data-palette-color="#003231"><path d="M12.77 0.39L12.77 0.39Q6.62 0.39 4.04-2.76 1.46-5.91 1.46-12.01L1.46-12.01 1.46-23.29Q1.46-27.88 2.44-30.93 3.42-33.98 5.86-35.5 8.3-37.01 12.65-37.01L12.65-37.01Q15.67-37.01 18.08-35.94 20.48-34.86 21.88-32.79 23.27-30.71 23.27-27.71L23.27-27.71 23.27-22.12 14.36-22.12 14.36-27.25Q14.36-28.52 13.99-29.38 13.62-30.25 12.4-30.25L12.4-30.25Q10.25-30.25 10.25-27.2L10.25-27.2 10.25-9.45Q10.25-8.33 10.74-7.39 11.23-6.45 12.35-6.45L12.35-6.45Q13.5-6.45 13.95-7.36 14.4-8.28 14.4-9.5L14.4-9.5 14.4-15.65 23.27-15.65 23.27-9.25Q23.27-6.23 21.91-4.06 20.56-1.9 18.19-0.76 15.82 0.39 12.77 0.39ZM36.96 0.39L36.96 0.39Q26.02 0.39 26.02-10.96L26.02-10.96 26.02-25.66Q26.02-30.83 28.93-33.92 31.83-37.01 36.96-37.01L36.96-37.01Q42.11-37.01 45.02-33.92 47.92-30.83 47.92-25.66L47.92-25.66 47.92-10.96Q47.92 0.39 36.96 0.39ZM36.96-6.35L36.96-6.35Q38.06-6.35 38.54-7.14 39.01-7.93 39.01-9.16L39.01-9.16 39.01-27.05Q39.01-30.25 36.96-30.25L36.96-30.25Q34.91-30.25 34.91-27.05L34.91-27.05 34.91-9.16Q34.91-7.93 35.39-7.14 35.86-6.35 36.96-6.35ZM60.03 0L51.14 0 51.14-42.97 60.03-42.97 60.03 0ZM70.21 0.39L70.21 0.39Q67.16 0.39 65.56-1.03 63.96-2.44 63.37-4.91 62.79-7.37 62.79-10.5L62.79-10.5Q62.79-13.84 63.44-15.98 64.1-18.12 65.7-19.48 67.3-20.85 70.11-21.8L70.11-21.8 75.53-23.66 75.53-27.42Q75.53-30.37 73.6-30.37L73.6-30.37Q71.84-30.37 71.84-27.98L71.84-27.98 71.84-25.78 63.35-25.78Q63.32-25.98 63.32-26.28 63.32-26.59 63.32-26.98L63.32-26.98Q63.32-32.45 65.9-34.73 68.47-37.01 74.06-37.01L74.06-37.01Q76.99-37.01 79.31-35.97 81.63-34.94 82.99-32.91 84.34-30.88 84.34-27.91L84.34-27.91 84.34 0 75.65 0 75.65-4.35Q75.02-2.05 73.55-0.83 72.09 0.39 70.21 0.39ZM73.65-6.4L73.65-6.4Q74.72-6.4 75.11-7.3 75.51-8.2 75.51-9.25L75.51-9.25 75.51-19.46Q73.7-18.73 72.7-17.61 71.7-16.5 71.7-14.36L71.7-14.36 71.7-9.64Q71.7-6.4 73.65-6.4ZM102.33 0.39L102.33 0.39Q100.19 0.39 98.84-0.67 97.5-1.73 96.69-3.91L96.69-3.91 96.69 0 87.81 0 87.81-42.97 96.69-42.97 96.69-32.71Q97.5-34.74 98.93-35.88 100.36-37.01 103.02-37.01L103.02-37.01Q106.61-37.01 108.08-34.4 109.56-31.79 109.56-27.56L109.56-27.56 109.56-9.55Q109.56-6.74 108.79-4.48 108.02-2.22 106.42-0.92 104.82 0.39 102.33 0.39ZM98.72-6.42L98.72-6.42Q100.11-6.42 100.41-7.79 100.7-9.16 100.7-11.16L100.7-11.16 100.7-25.46Q100.7-27.49 100.41-28.85 100.11-30.2 98.74-30.2L98.74-30.2Q97.33-30.2 97.01-28.82 96.69-27.44 96.69-25.46L96.69-25.46 96.69-11.16Q96.69-9.18 97.01-7.8 97.33-6.42 98.72-6.42Z" opacity="1" transform="matrix(1,0,0,1,0,0)" fill="#ffffff" class="wordmark-text-0" data-fill-palette-color="primary" id="text-0"></path></svg></g></svg></g></svg></g></svg></g></svg></g><defs></defs></svg><rect width="395.52" height="158.63674796747966" fill="none" stroke="none" visibility="hidden"></rect></g></svg></g></svg>